<?xml version="1.0" encoding="UTF-8" standalone="no"?>
<svg width="256px" height="256px" viewBox="0 0 256 256" version="1.1" xmlns="http://www.w3.org/2000/svg" xmlns:xlink="http://www.w3.org/1999/xlink" style="background: #DA513D;">
    <!-- Generator: Sketch 42 (36781) - http://www.bohemiancoding.com/sketch -->
    <title>icon</title>
    <desc>Created with Sketch.</desc>
    <defs></defs>
    <g id="Page-1" stroke="none" stroke-width="1" fill="none" fill-rule="evenodd">
        <g id="icon" fill-rule="nonzero" fill="#FFFFFF">
            <g id="Twig" transform="translate(48.000000, 50.000000)">
                <path d="M60.7676994,121 C54.8266379,121 50.0103917,131.834777 50.0103917,139.756208 C49.839358,144.459928 51.786806,148.992421 55.3166533,152.106008 C60.0183763,144.997854 64.9044302,138.018954 69.9748148,131.169308 C68.091784,125.700608 64.6785456,121 60.7676994,121 Z" id="Shape"></path>
                <path d="M90.0594659,105.949933 C95.3938967,99.6489942 100.915604,93.4445327 106.624589,87.3365481 C105.861181,82.3207327 103.733489,77.8700019 100.360266,77.1136327 C94.8693659,75.8827327 88.1733428,84.898425 86.5319967,92.2195557 C85.1526873,97.0976693 86.4996792,102.340722 90.0594659,105.949933 Z" id="Shape"></path>
                <path d="M70.6267231,15.2824227 C68.3466308,19.8992227 66.1377231,24.5932458 64,29.364492 C66.6895151,30.2559083 69.6362527,29.9039477 72.0401615,28.4041689 C76.2073692,26.0002689 80.4457,20.1783766 78.6426538,17.0530458 C77.4702308,15.0207304 74.0338923,14.6469073 70.6267231,15.2824227 Z" id="Shape"></path>
                <path d="M51.5888462,91.0396508 C56.1893,87.1724662 60.1302846,79.0855508 57.2297692,75.6354123 C55.2833692,73.3199662 50.7526308,73.6873046 46.5910538,75.3438585 C44.6154846,81.4149354 42.7518,87.55032 41,93.7500123 C44.7608335,94.6895204 48.741898,93.6705119 51.5888462,91.0396508 L51.5888462,91.0396508 Z" id="Shape"></path>
                <path d="M145.931651,48.7674162 C146.011583,46.32989 144.885929,44.0093595 142.922097,42.5632316 C138.431512,40.0805931 130.263874,46.2578469 126.954043,52.2454316 C124.182112,57.2591469 124.438659,62.8552777 127.220535,66.0113008 C133.277097,60.1951777 139.48262,54.4386162 145.931651,48.7674162 Z" id="Shape"></path>
                <path d="M144.925038,74.0084683 C139.463731,79.7802375 134.155385,85.6590067 129,91.644776 C131.857846,95.2256221 138.005123,95.8311375 143.458292,92.8163683 C149.375562,89.5449836 155.479869,81.472976 153.026262,77.035076 C151.779946,74.7806221 148.562792,73.9027067 144.925038,74.0084683 Z" id="Shape"></path>
                <path d="M72.6492308,169.84125 C67.5017077,178.712019 62.6186308,187.745173 58,196.940712 C62.6877769,200.371835 70.4809,199.470242 76.6006923,194.436865 C83.5353077,188.733542 89.5525923,176.716489 85.2751,171.515573 C82.9014308,168.629504 77.8550385,168.45555 72.6492308,169.84125 Z" id="Shape"></path>
                <path d="M108.669362,116.121977 C102.888438,123.702547 97.3319846,131.430724 92,139.306508 C95.8995846,142.631893 102.782369,142.027739 108.168062,137.598285 C114.0356,132.772324 119.127292,122.604193 115.507908,118.20347 C113.693589,116.453975 111.150717,115.679985 108.669362,116.121977 L108.669362,116.121977 Z" id="Shape"></path>
                <path d="M7.77845201,144.21159 C9.6055597,135.586344 11.6709905,127.017383 13.9747443,118.504706 C12.3666178,116.216692 9.70851473,114.899573 6.91392124,115.00599 C1.56499047,115.99209 -0.97284799,126.546575 0.341844318,133.678521 C0.972189229,138.185288 3.74257673,142.109212 7.77845201,144.21159 L7.77845201,144.21159 Z" id="Shape"></path>
                <path d="M36.6964187,53.1756086 C39.3372187,47.0228393 42.0979879,40.9254239 44.9787264,34.8833624 C43.486134,31.0953316 41.0370264,28.0018239 38.2597417,28.0000009 C33.7030879,27.9969086 30.0039494,36.3041162 30.0000033,42.3792316 C29.9964494,47.7480778 32.8816417,52.2061239 36.6964187,53.1756086 Z" id="Shape"></path>
                <path d="M36.2201769,235.663678 L21.8692154,222.616678 C57.5418692,145.214071 106.830831,85.4675707 173.155662,32.6414246 C174.380705,31.6711977 176.156219,31.8562282 177.154892,33.0581938 L177.154892,33.0581938 C178.137382,34.2421083 177.999619,35.9928292 176.844046,37.0085015 C114.992649,91.2407312 66.8123118,159.303667 36.2201769,235.663678 L36.2201769,235.663678 Z M71.8918154,3.17542455 C72.4428336,2.14297495 72.0694895,0.859470241 71.0506615,0.283655323 L71.0483538,0.282270707 C70.01312,-0.301794556 68.7008917,0.0490011847 68.0952,1.07173225 C30.1463561,65.5907165 7.85147009,138.107711 3,212.802271 L17.202,220.339194 C18.7231846,147.065763 37.4433923,68.1331092 71.8918154,3.17542455 Z" id="Shape"></path>
            </g>
        </g>
    </g>
</svg>